<?xml version="1.0" encoding="UTF-8" standalone="no"?>
<svg
   width="1400.6838"
   height="649.39575"
   viewBox="0 0 370.59761 171.81929"
   version="1.1"
   id="svg5"
   inkscape:version="1.1 (c68e22c387, 2021-05-23)"
   sodipodi:docname="icon.svg"
   inkscape:export-filename="C:\Users\golde\OneDrive\Documents\school\business mgmt\Business Plan Documents\isolated logo black.png"
   inkscape:export-xdpi="158.71571"
   inkscape:export-ydpi="158.71571"
   xmlns:inkscape="http://www.inkscape.org/namespaces/inkscape"
   xmlns:sodipodi="http://sodipodi.sourceforge.net/DTD/sodipodi-0.dtd"
   xmlns="http://www.w3.org/2000/svg"
   xmlns:svg="http://www.w3.org/2000/svg"
   xmlns:rdf="http://www.w3.org/1999/02/22-rdf-syntax-ns#"
   xmlns:cc="http://creativecommons.org/ns#"
   xmlns:dc="http://purl.org/dc/elements/1.1/">
  <metadata
     id="metadata859">
    <rdf:RDF>
      <cc:Work
         rdf:about="">
        <dc:format>image/svg+xml</dc:format>
        <dc:type
           rdf:resource="http://purl.org/dc/dcmitype/StillImage" />
      </cc:Work>
    </rdf:RDF>
  </metadata>
  <sodipodi:namedview
     id="namedview7"
     pagecolor="#505050"
     bordercolor="#ffffff"
     borderopacity="1"
     inkscape:pageshadow="0"
     inkscape:pageopacity="0"
     inkscape:pagecheckerboard="1"
     inkscape:document-units="px"
     showgrid="true"
     inkscape:zoom="1.4854022"
     inkscape:cx="3569.7402"
     inkscape:cy="-16.493849"
     inkscape:window-width="1920"
     inkscape:window-height="1017"
     inkscape:window-x="-8"
     inkscape:window-y="-8"
     inkscape:window-maximized="1"
     inkscape:current-layer="layer4"
     showguides="true"
     inkscape:snap-global="false"
     inkscape:document-rotation="0"
     inkscape:showpageshadow="0"
     inkscape:deskcolor="#505050">
    <inkscape:grid
       type="axonomgrid"
       id="grid55"
       empspacing="20"
       originx="0"
       originy="0"
       visible="true"
       enabled="false" />
    <sodipodi:guide
       position="-16.459647,162.03478"
       orientation="0,-1"
       id="guide694"
       inkscape:locked="false" />
    <sodipodi:guide
       position="3.2864685e-05,171.81929"
       orientation="0,-1"
       id="guide698"
       inkscape:locked="false" />
    <sodipodi:guide
       position="-16.459637,162.03478"
       orientation="1,0"
       id="guide2114"
       inkscape:locked="false" />
    <sodipodi:guide
       position="-34.331147,58.201636"
       orientation="0,-1"
       id="guide2116"
       inkscape:locked="false" />
    <sodipodi:guide
       position="35.937013,27.95042"
       orientation="0,-1"
       id="guide2118"
       inkscape:locked="false" />
    <sodipodi:guide
       position="-12.374497,128.65117"
       orientation="1,0"
       id="guide2120"
       inkscape:locked="false" />
    <sodipodi:guide
       position="35.937013,27.95042"
       orientation="0.5,0.8660254"
       id="guide2911"
       inkscape:locked="false"
       inkscape:label=""
       inkscape:color="rgb(0,134,229)" />
    <sodipodi:guide
       position="-4.2888571,55.258552"
       orientation="0.5,0.8660254"
       id="guide4365"
       inkscape:locked="false"
       inkscape:label=""
       inkscape:color="rgb(0,134,229)" />
  </sodipodi:namedview>
  <defs
     id="defs2" />
  <g
     inkscape:groupmode="layer"
     id="layer2"
     inkscape:label="isolated"
     style="display:inline"
     transform="translate(-1264.7406,-300.24258)">
    <g
       id="g5483">
      <path
         d="m 1360.2028,383.21815 19.4773,11.24522 v -9.87581 l -19.4773,-11.24522 z m -16.4596,-9.503 v -18.10565 -8.22984 l 8.2298,4.7515 35.937,20.74822 8.2298,4.7515 v 8.22984 26.33549 8.22984 l -8.2298,-4.7515 -27.7072,-15.99672 v 9.60148 l 27.7072,15.99672 8.2298,4.7515 v 16.45968 l -8.2298,-4.7515 -35.937,-20.74822 -8.2298,-4.7515 v -8.22984 -17.83132 z"
         style="font-size:137.164px;line-height:1.25;font-family:Robot_Font;-inkscape-font-specification:Robot_Font;letter-spacing:0px;word-spacing:0px;fill:#ffffff;stroke-width:1.83701"
         id="path565" />
      <path
         d="m 1492.4134,449.72979 -8.2298,-4.7515 v -16.45968 l 8.2298,4.7515 22.2206,12.82906 v -10.69879 l -22.2206,-12.82906 -8.2298,-4.7515 v -8.22984 -52.39664 -8.22984 l 16.4596,9.503 v 8.22984 44.1668 l 13.9908,8.07756 v -44.16681 -8.22984 l 16.4597,9.503 v 8.22984 44.16681 16.45968 18.92863 8.22984 l -8.2299,-4.7515 z"
         style="font-size:137.164px;line-height:1.25;font-family:Robot_Font;-inkscape-font-specification:Robot_Font;letter-spacing:0px;word-spacing:0px;fill:#ffffff;stroke-width:1.83701"
         id="path569" />
      <path
         d="m 1560.3401,364.48506 6.3095,3.64282 8.2299,4.7515 v 16.45968 l -8.2299,-4.7515 -6.3095,-3.64282 v 35.93697 l 6.3095,3.64282 8.2299,4.7515 v 16.45968 l -8.2299,-4.7515 -14.5394,-8.39432 -8.2298,-4.7515 v -8.22984 -44.16681 l -4.9379,-2.8509 v -16.45968 l 4.9379,2.8509 v -26.74698 -8.22984 l 16.4597,9.503 v 8.22984 z"
         style="font-size:137.164px;line-height:1.25;font-family:Robot_Font;-inkscape-font-specification:Robot_Font;letter-spacing:0px;word-spacing:0px;fill:#ffffff;stroke-width:1.83701"
         id="path571" />
      <path
         d="m 1599.4012,383.21815 19.4773,11.24522 v -9.87581 l -19.4773,-11.24522 z m -16.4596,-9.503 v -18.10565 -8.22984 l 8.2298,4.7515 35.937,20.74822 8.2298,4.7515 v 8.22984 26.33549 8.22984 l -8.2298,-4.7515 -27.7072,-15.99672 v 9.60148 l 27.7072,15.99672 8.2298,4.7515 v 16.45968 l -8.2298,-4.7515 -35.937,-20.74822 -8.2298,-4.7515 v -8.22984 -17.83132 z"
         style="font-size:137.164px;line-height:1.25;font-family:Robot_Font;-inkscape-font-specification:Robot_Font;letter-spacing:0px;word-spacing:0px;fill:#ffffff;stroke-width:1.83701"
         id="path573" />
      <g
         id="g5143"
         transform="translate(1084.6256,151.86339)">
        <path
           style="fill:#ffffff;fill-opacity:1;stroke:none;stroke-width:0.264583px;stroke-linecap:butt;stroke-linejoin:miter;stroke-opacity:1"
           d="m 320.66699,160.53945 16.45968,-9.78451 16.45967,9.503 v 34.97682 l 35.93698,20.74822 v 68.85632 l -16.45968,9.78452 v -68.85633 l -35.93697,-20.74822 v -34.97682 z"
           id="path5137" />
        <path
           style="fill:#ffffff;fill-opacity:1;stroke:none;stroke-width:0.264583px;stroke-linecap:butt;stroke-linejoin:miter;stroke-opacity:1"
           d="m 337.12667,221.47895 19.47729,11.24522 v 35.93696 l -19.47729,-11.24521 z"
           id="path5139" />
        <path
           style="fill:#ffffff;fill-opacity:1;stroke:none;stroke-width:0.264583px;stroke-linecap:butt;stroke-linejoin:miter;stroke-opacity:1"
           d="m 320.66699,160.53945 10e-6,103.83314 52.39664,30.25122 3.53661,-2.04186 -51.84812,-29.93452 V 160.53945 Z"
           id="path5141" />
      </g>
      <g
         id="g5151"
         transform="matrix(-1,0,0,1,1654.2639,149.48764)">
        <path
           style="fill:#ffffff;fill-opacity:1;stroke:none;stroke-width:0.264583px;stroke-linecap:butt;stroke-linejoin:miter;stroke-opacity:1"
           d="m 320.66699,160.53945 16.45968,-9.78451 16.45967,9.503 v 34.97682 l 35.93698,20.74822 v 68.85632 l -16.45968,9.78452 v -68.85633 l -35.93697,-20.74822 v -34.97682 z"
           id="path5145" />
        <path
           style="fill:#ffffff;fill-opacity:1;stroke:none;stroke-width:0.264583px;stroke-linecap:butt;stroke-linejoin:miter;stroke-opacity:1"
           d="m 337.12667,221.47895 19.47729,11.24522 v 35.93696 l -19.47729,-11.24521 z"
           id="path5147" />
        <path
           style="fill:#ffffff;fill-opacity:1;stroke:none;stroke-width:0.264583px;stroke-linecap:butt;stroke-linejoin:miter;stroke-opacity:1"
           d="m 320.66699,160.53945 10e-6,103.83314 52.39664,30.25122 3.53661,-2.04186 -51.84812,-29.93452 V 160.53945 Z"
           id="path5149" />
      </g>
    </g>
  </g>
</svg>
